<svg xmlns="http://www.w3.org/2000/svg" width="100" height="100" preserveAspectRatio="xMidYMid meet" version="1.0" viewBox="0 0 75 75" zoomAndPan="magnify"><defs><clipPath id="df07e63312"><path d="M1.73 1.73H38V38H1.73Zm0 0" clip-rule="nonzero"/></clipPath><clipPath id="a4edaf3fdd"><path d="M39 1.73h3V3h-3Zm0 0" clip-rule="nonzero"/></clipPath><clipPath id="b2aea9389c"><path d="M36 36h36.98v36.98H36Zm0 0" clip-rule="nonzero"/></clipPath><clipPath id="4066f92ee4"><path d="M32 71h4v1.98h-4Zm0 0" clip-rule="nonzero"/></clipPath><clipPath id="71b340d3c6"><path d="M60 1.73h2V8h-2Zm0 0" clip-rule="nonzero"/></clipPath><clipPath id="bb499d2572"><path d="M66 12h6.98v2H66Zm0 0" clip-rule="nonzero"/></clipPath></defs><g clip-path="url(#df07e63312)"><path fill="#263238" fill-opacity="1" fill-rule="nonzero" d="M2.355 37.98a.627.627 0 0 1-.625-.625C1.73 17.711 17.71 1.73 37.355 1.73c.344 0 .625.282.625.625a.627.627 0 0 1-.625.625C18.402 2.98 2.98 18.402 2.98 37.355a.627.627 0 0 1-.625.625Zm0 0"/></g><g clip-path="url(#a4edaf3fdd)"><path fill="#263238" fill-opacity="1" fill-rule="nonzero" d="M41.105 2.98h-1.25a.627.627 0 0 1-.625-.625c0-.343.282-.625.625-.625h1.25c.344 0 .625.282.625.625a.627.627 0 0 1-.625.625Zm0 0"/></g><g clip-path="url(#b2aea9389c)"><path fill="#263238" fill-opacity="1" fill-rule="nonzero" d="M37.355 72.98a.627.627 0 0 1-.625-.625c0-.343.282-.625.625-.625 18.954 0 34.375-15.418 34.375-34.375 0-.343.282-.625.625-.625.344 0 .625.282.625.625C72.98 57 57 72.98 37.355 72.98Zm0 0"/></g><g clip-path="url(#4066f92ee4)"><path fill="#263238" fill-opacity="1" fill-rule="nonzero" d="M34.855 72.98h-1.25a.627.627 0 0 1-.625-.625c0-.343.282-.625.625-.625h1.25c.344 0 .625.282.625.625a.627.627 0 0 1-.625.625Zm0 0"/></g><path fill="#263238" fill-opacity="1" fill-rule="nonzero" d="M37.355 67.98C20.47 67.98 6.73 54.242 6.73 37.355 6.73 20.47 20.47 6.73 37.355 6.73c16.887 0 30.625 13.739 30.625 30.625 0 16.887-13.738 30.625-30.625 30.625Zm0-60C21.16 7.98 7.98 21.16 7.98 37.355c0 16.2 13.18 29.375 29.375 29.375 16.2 0 29.375-13.175 29.375-29.375C66.73 21.16 53.555 7.98 37.355 7.98Zm0 0"/><path fill="#83e1e5" fill-opacity="1" fill-rule="nonzero" d="M37.355 14.855c-12.425 0-22.5 10.075-22.5 22.5 0 12.426 10.075 22.5 22.5 22.5 12.426 0 22.5-10.074 22.5-22.5 0-12.425-10.074-22.5-22.5-22.5Zm0 0"/><path fill="#263238" fill-opacity="1" fill-rule="nonzero" d="M37.355 60.48c-12.75 0-23.125-10.37-23.125-23.125 0-12.75 10.375-23.125 23.125-23.125 12.754 0 23.125 10.375 23.125 23.125 0 12.754-10.37 23.125-23.125 23.125Zm0-45c-12.058 0-21.875 9.817-21.875 21.875 0 12.063 9.817 21.875 21.875 21.875 12.063 0 21.875-9.812 21.875-21.875 0-12.058-9.812-21.875-21.875-21.875ZM63.605 5.48h-5a.627.627 0 0 1-.625-.625c0-.343.282-.625.625-.625h5c.344 0 .625.282.625.625a.627.627 0 0 1-.625.625Zm0 0"/><g clip-path="url(#71b340d3c6)"><path fill="#263238" fill-opacity="1" fill-rule="nonzero" d="M61.105 7.98a.627.627 0 0 1-.625-.625v-5c0-.343.282-.625.625-.625.344 0 .625.282.625.625v5a.627.627 0 0 1-.625.625Zm0 0"/></g><g clip-path="url(#bb499d2572)"><path fill="#263238" fill-opacity="1" fill-rule="nonzero" d="M72.355 13.605h-5a.627.627 0 0 1-.625-.625c0-.343.282-.625.625-.625h5c.344 0 .625.282.625.625a.627.627 0 0 1-.625.625Zm0 0"/></g><path fill="#263238" fill-opacity="1" fill-rule="nonzero" d="M69.855 16.105a.627.627 0 0 1-.625-.625v-5c0-.343.282-.625.625-.625.344 0 .625.282.625.625v5a.627.627 0 0 1-.625.625Zm0 0"/><path fill="#fff" fill-opacity="1" fill-rule="nonzero" d="M33.602 47.188c-.48 0-.961-.184-1.329-.551l-8.398-8.395a1.879 1.879 0 0 1 0-2.652 1.872 1.872 0 0 1 2.652 0l7.07 7.07 14.587-14.582a1.867 1.867 0 0 1 2.648 0c.734.73.734 1.918 0 2.652L34.926 46.637a1.87 1.87 0 0 1-1.324.55Zm0 0"/><path fill="#263238" fill-opacity="1" fill-rule="nonzero" d="M33.602 47.813a2.488 2.488 0 0 1-1.77-.735l-8.398-8.394a2.485 2.485 0 0 1-.73-1.77c0-.668.257-1.293.73-1.766.945-.945 2.59-.945 3.535 0l6.633 6.63 14.14-14.141c.946-.946 2.59-.946 3.535 0 .473.468.73 1.097.73 1.765 0 .668-.257 1.297-.73 1.766l-15.91 15.91a2.486 2.486 0 0 1-1.765.734Zm-8.399-12.149c-.336 0-.648.129-.883.367a1.225 1.225 0 0 0-.367.883c0 .332.129.648.367.883l8.395 8.398c.472.473 1.297.473 1.77 0l15.91-15.91c.234-.238.367-.55.367-.883a1.252 1.252 0 0 0-2.137-.883L34.043 43.103a.627.627 0 0 1-.883 0l-7.074-7.07a1.232 1.232 0 0 0-.883-.368Zm0 0"/></svg>