<svg xmlns="http://www.w3.org/2000/svg" width="100" height="100" preserveAspectRatio="xMidYMid meet" version="1.0" viewBox="0 0 75 75" zoomAndPan="magnify"><path fill="#83e1e5" fill-opacity="1" fill-rule="nonzero" d="m37.629 21.715-13.777 7.957v15.914l13.777 7.957 13.777-7.957V29.672Zm0 0"/><path fill="#83e1e5" fill-opacity="1" fill-rule="nonzero" d="M51.406 29.672v15.914L37.63 37.629V21.715Zm0 0"/><path fill="#83e1e5" fill-opacity="1" fill-rule="nonzero" d="M51.406 45.586 37.63 53.543l-13.777-7.957 13.777-7.957Zm0 0"/><path fill="#fff" fill-opacity="1" fill-rule="nonzero" d="M17.168 12.621V8.074l-9.094 9.094 9.094 9.094v-4.547h11.367V12.62ZM67.184 58.09l-9.094-9.094v4.547H46.723v9.094H58.09v4.547Zm0 0"/><path fill="#000" fill-opacity="1" fill-rule="nonzero" d="M37.629 18.305H21.715a1.135 1.135 0 0 1-1.137-1.137c0-.629.508-1.137 1.137-1.137h15.914c.629 0 1.137.508 1.137 1.137s-.508 1.137-1.137 1.137Zm0 0"/><path fill="#000" fill-opacity="1" fill-rule="nonzero" d="M17.168 27.398c-.297 0-.586-.117-.805-.332L7.27 17.973a1.136 1.136 0 0 1 0-1.61l9.093-9.093a1.138 1.138 0 0 1 1.942.804v3.41h28.418c.629 0 1.136.508 1.136 1.137s-.507 1.137-1.136 1.137H17.168a1.135 1.135 0 0 1-1.137-1.137v-1.805L9.68 17.168l6.351 6.348v-1.801c0-.63.508-1.137 1.137-1.137h11.367c.63 0 1.137.508 1.137 1.137s-.508 1.137-1.137 1.137h-10.23v3.41a1.136 1.136 0 0 1-1.137 1.136ZM58.09 68.32a1.138 1.138 0 0 1-1.137-1.137v-3.41H28.535a1.135 1.135 0 0 1-1.137-1.136c0-.63.508-1.137 1.137-1.137H58.09c.629 0 1.137.508 1.137 1.137v1.8l6.347-6.347-6.347-6.352v1.805c0 .629-.508 1.137-1.137 1.137H46.723a1.135 1.135 0 0 1-1.137-1.137c0-.629.508-1.137 1.137-1.137h10.23v-3.41c0-.46.277-.875.7-1.05a1.145 1.145 0 0 1 1.242.245l9.093 9.094a1.143 1.143 0 0 1 0 1.61l-9.093 9.093a1.149 1.149 0 0 1-.805.332Zm0 0"/><path fill="#000" fill-opacity="1" fill-rule="nonzero" d="M53.543 59.227H37.629a1.135 1.135 0 0 1-1.137-1.137c0-.63.508-1.137 1.137-1.137h15.914c.629 0 1.137.508 1.137 1.137s-.508 1.137-1.137 1.137ZM46.105 43.66c-.195 0-.39-.05-.566-.152l-8.48-4.895a1.136 1.136 0 0 1-.414-1.554 1.133 1.133 0 0 1 1.55-.414l8.48 4.894c.544.313.731 1.008.415 1.55-.211.368-.59.571-.985.571Zm0 0"/><path fill="#000" fill-opacity="1" fill-rule="nonzero" d="M23.848 46.723a1.13 1.13 0 0 1-.985-.57 1.135 1.135 0 0 1 .414-1.551l13.782-7.957a1.137 1.137 0 1 1 1.136 1.968l-13.78 7.957a1.131 1.131 0 0 1-.567.153Zm0 0"/><path fill="#000" fill-opacity="1" fill-rule="nonzero" d="M37.629 38.766a1.135 1.135 0 0 1-1.137-1.137V21.715c0-.63.508-1.137 1.137-1.137s1.137.508 1.137 1.137v15.914c0 .629-.508 1.137-1.137 1.137Zm0 0"/><path fill="#000" fill-opacity="1" fill-rule="nonzero" d="M37.629 54.68c-.195 0-.395-.051-.57-.153L23.277 46.57a1.135 1.135 0 0 1-.566-.984V29.672c0-.406.215-.781.566-.985L37.06 20.73c.351-.203.789-.203 1.136 0l13.785 7.957c.352.204.567.579.567.985v15.914c0 .406-.215.781-.567.984l-13.785 7.957a1.12 1.12 0 0 1-.566.153Zm-12.645-9.75 12.645 7.3 12.644-7.3V30.328l-12.644-7.3-12.645 7.3Zm0 0"/></svg>