<svg xmlns="http://www.w3.org/2000/svg" width="100" height="100" preserveAspectRatio="xMidYMid meet" version="1.0" viewBox="0 0 75 75" zoomAndPan="magnify"><defs><clipPath id="85b252357e"><path d="M58 25h16.063v17H58Zm0 0" clip-rule="nonzero"/></clipPath><clipPath id="f6898e08cf"><path d="M1.313 6H64v63H1.312Zm0 0" clip-rule="nonzero"/></clipPath></defs><path fill="#83e1e5" fill-opacity="1" fill-rule="nonzero" d="M41.465 8.344H8.906A6.156 6.156 0 0 0 2.75 14.5v27.344A6.158 6.158 0 0 0 8.906 48h.684l1.812 7.164a6.201 6.201 0 0 0 7.532 4.488l1.867 7.38 18.023-4.563L36.934 55l.082-.02A7.367 7.367 0 0 0 41.46 48h.004a6.158 6.158 0 0 0 6.156-6.156V14.5a6.156 6.156 0 0 0-6.156-6.156Zm0 0"/><path fill="#efefef" fill-opacity="1" fill-rule="nonzero" d="m10.984 28.254-.8-3.156a3.106 3.106 0 0 1 2.246-3.766 3.099 3.099 0 0 1 3.761 2.246l-1.062-4.203a3.099 3.099 0 1 1 6.008-1.523l3.383 13.37-2.32-9.163a3.102 3.102 0 0 1 2.246-3.766 3.093 3.093 0 0 1 3.761 2.242l2.988 11.79a3.091 3.091 0 0 1 2.242-3.763l.079-.023a3.103 3.103 0 0 1 3.765 2.246l3.957 15.625a7.367 7.367 0 0 1-4.223 8.57l-.081.02 1.89 7.469-18.023 4.562-1.867-7.379a6.201 6.201 0 0 1-7.531-4.488L9.59 48l-1.004-3.96-3.61-14.267a3.02 3.02 0 0 1-.097-.761c0-1.387.937-2.649 2.34-3.004a3.104 3.104 0 0 1 3.765 2.246Zm0 0"/><path fill="#83e1e5" fill-opacity="1" fill-rule="nonzero" d="M68.367 30.984a8.19 8.19 0 0 0 4.258 2.246 8.157 8.157 0 0 0-4.258 2.243 8.176 8.176 0 0 0-2.246 4.257 8.133 8.133 0 0 0-6.5-6.5 8.176 8.176 0 0 0 4.258-2.246 8.142 8.142 0 0 0 2.242-4.257 8.176 8.176 0 0 0 2.246 4.257ZM61.39 11.7a6.429 6.429 0 0 0 3.356 1.769 6.4 6.4 0 0 0-3.355 1.77 6.429 6.429 0 0 0-1.77 3.355 6.42 6.42 0 0 0-5.125-5.125 6.429 6.429 0 0 0 3.356-1.77 6.4 6.4 0 0 0 1.77-3.355c.245 1.3.874 2.46 1.769 3.355Zm0 0"/><g clip-path="url(#85b252357e)"><path fill="#000" fill-opacity="1" fill-rule="nonzero" d="M72.89 34.64a1.432 1.432 0 0 0 1.172-1.41c0-.695-.492-1.289-1.171-1.414a6.664 6.664 0 0 1-3.504-1.851 6.677 6.677 0 0 1-1.852-3.504 1.44 1.44 0 0 0-1.414-1.172c-.691 0-1.285.492-1.41 1.172a6.708 6.708 0 0 1-5.352 5.355 1.432 1.432 0 0 0-1.175 1.41c0 .696.492 1.29 1.171 1.415a6.672 6.672 0 0 1 5.356 5.355 1.437 1.437 0 0 0 2.824 0 6.65 6.65 0 0 1 1.852-3.504 6.65 6.65 0 0 1 3.504-1.851Zm-5.538-.183c-.461.461-.872.961-1.223 1.496a9.57 9.57 0 0 0-2.73-2.73A9.476 9.476 0 0 0 64.894 32a9.519 9.519 0 0 0 1.226-1.504 9.809 9.809 0 0 0 2.734 2.734 9.519 9.519 0 0 0-1.503 1.227Zm0 0"/></g><path fill="#000" fill-opacity="1" fill-rule="nonzero" d="M65.012 12.055a4.941 4.941 0 0 1-2.602-1.375 4.941 4.941 0 0 1-1.375-2.602 1.44 1.44 0 0 0-1.414-1.172c-.691 0-1.285.492-1.41 1.172a4.969 4.969 0 0 1-1.375 2.602 4.967 4.967 0 0 1-2.606 1.375 1.44 1.44 0 0 0 0 2.828 4.95 4.95 0 0 1 3.98 3.976c.126.68.72 1.172 1.411 1.172a1.44 1.44 0 0 0 1.414-1.172c.188-.992.66-1.89 1.375-2.605a4.935 4.935 0 0 1 2.602-1.371 1.44 1.44 0 0 0 0-2.828Zm-4.637 2.168c-.273.27-.523.558-.746.863a8.008 8.008 0 0 0-1.625-1.625 7.42 7.42 0 0 0 .867-.746c.274-.274.524-.563.75-.871a7.982 7.982 0 0 0 1.625 1.625 7.58 7.58 0 0 0-.871.754Zm0 0"/><g clip-path="url(#f6898e08cf)"><path fill="#000" fill-opacity="1" fill-rule="nonzero" d="M41.465 6.906H8.906c-4.187 0-7.594 3.407-7.594 7.594v27.344c0 4.039 3.172 7.351 7.153 7.582l1.543 6.09a7.629 7.629 0 0 0 7.851 5.75l1.547 6.117c.094.37.332.687.657.883.226.136.48.203.738.203.117 0 .234-.016.351-.043l18.024-4.563a1.439 1.439 0 0 0 1.043-1.746l-1.606-6.344a8.713 8.713 0 0 0 4.203-6.336h19.309a1.436 1.436 0 1 0 0-2.875H47.406a7.566 7.566 0 0 0 1.399-2.78h6.785a1.44 1.44 0 1 0 0-2.88h-6.531V14.5c0-4.188-3.407-7.594-7.594-7.594ZM8.906 9.781h32.559a4.725 4.725 0 0 1 4.719 4.719v27.344a4.727 4.727 0 0 1-3.477 4.55 10.342 10.342 0 0 0-.074-.335l-3.957-15.63a4.51 4.51 0 0 0-2.078-2.78 4.49 4.49 0 0 0-3.438-.5l-.074.019a4.489 4.489 0 0 0-1.535.71l-1.95-7.694a4.512 4.512 0 0 0-2.074-2.786 4.548 4.548 0 0 0-4.969.21l-.027-.108a4.518 4.518 0 0 0-2.078-2.785 4.536 4.536 0 0 0-6.719 5.012l.028.113a4.533 4.533 0 0 0-5.11 4.496c0 .062.004.125.004.187a4.617 4.617 0 0 0-1.789.09 4.565 4.565 0 0 0-2.68 1.903V14.5a4.725 4.725 0 0 1 4.72-4.719ZM4.187 41.844v-9.317l3.004 11.868.512 2.011a4.732 4.732 0 0 1-3.516-4.562ZM36.52 53.625a1.44 1.44 0 0 0-.98 1.727l1.538 6.074-15.238 3.86-1.512-5.99a1.448 1.448 0 0 0-.66-.882 1.455 1.455 0 0 0-1.09-.156 4.755 4.755 0 0 1-5.781-3.445L9.98 43.687 6.371 29.419a1.655 1.655 0 0 1 2.457-1.832c.383.227.652.59.762 1.02l.144.585 2.668 10.528a1.438 1.438 0 1 0 2.79-.707l-2.669-10.528-.148-.586-.797-3.152a1.662 1.662 0 0 1 1.203-2.02 1.663 1.663 0 0 1 2.016 1.204L18.41 38.2a1.438 1.438 0 0 0 1.75 1.038 1.436 1.436 0 0 0 1.04-1.746l-3.614-14.27-1.063-4.202a1.658 1.658 0 0 1 1.203-2.016c.43-.11.876-.047 1.254.184.383.226.653.585.762 1.015l3.613 14.27 1.063 4.203a1.438 1.438 0 0 0 2.789-.703l-1.062-4.207h-.004l-.34-1.356-2.207-8.707a1.654 1.654 0 0 1 1.203-2.016 1.648 1.648 0 0 1 2.015 1.2l2.989 11.789.625 2.48 1.996 7.883a1.44 1.44 0 0 0 1.75 1.043 1.44 1.44 0 0 0 1.039-1.75l-1.996-7.883-.625-2.48a1.657 1.657 0 0 1 1.203-2.016l.078-.02a1.64 1.64 0 0 1 1.254.184c.383.227.652.59.762 1.02l3.957 15.625c.105.422.168.851.18 1.281a5.895 5.895 0 0 1-3.504 5.582Zm0 0"/></g><path fill="#000" fill-opacity="1" fill-rule="nonzero" d="M66.125 46.656c-1.852 0-1.855 2.875 0 2.875 1.848 0 1.852-2.875 0-2.875Zm0 0"/></svg>