<svg xmlns="http://www.w3.org/2000/svg" width="100" height="100" preserveAspectRatio="xMidYMid meet" version="1.0" viewBox="0 0 75 75" zoomAndPan="magnify"><defs><clipPath id="181fc8dce9"><path d="M40 29h33v44.219H40Zm0 0" clip-rule="nonzero"/></clipPath><clipPath id="412529764e"><path d="M7 1.969h51V29H7Zm0 0" clip-rule="nonzero"/></clipPath><clipPath id="a83f244bca"><path d="M2 61h13v12.219H2Zm0 0" clip-rule="nonzero"/></clipPath><clipPath id="9983edfe65"><path d="M2 67h7v6.219H2Zm0 0" clip-rule="nonzero"/></clipPath></defs><path fill="#83e1e5" fill-opacity="1" fill-rule="nonzero" d="M41.215 34.813V33.14a2.78 2.78 0 0 1 2.781-2.782h25.606a2.783 2.783 0 0 1 2.785 2.782v36.738a2.784 2.784 0 0 1-2.785 2.785H43.996a2.78 2.78 0 0 1-2.781-2.785V44.832"/><g clip-path="url(#181fc8dce9)"><path fill="#000" fill-opacity="1" fill-rule="nonzero" d="M69.602 29.8H43.996c-1.84 0-3.34 1.5-3.34 3.34v1.672a.558.558 0 0 0 1.114 0v-1.671c0-1.227 1-2.227 2.226-2.227h25.606c1.226 0 2.226 1 2.226 2.227v36.738c0 1.23-1 2.226-2.226 2.226H43.996a2.228 2.228 0 0 1-2.226-2.226V44.832a.558.558 0 1 0-1.114 0v25.047c0 1.844 1.5 3.34 3.34 3.34h25.606c1.84 0 3.34-1.496 3.34-3.34V33.14c0-1.84-1.5-3.34-3.34-3.34Zm0 0"/></g><path fill="#000" fill-opacity="1" fill-rule="nonzero" d="M41.215 37.594a.558.558 0 0 0-.559.558v3.34a.558.558 0 0 0 1.114 0v-3.34a.558.558 0 0 0-.555-.558Zm0 0"/><path fill="#fff" fill-opacity="1" fill-rule="nonzero" d="M66.82 35.367H46.781c-.617 0-1.113.5-1.113 1.113v4.454a1.11 1.11 0 0 0 1.113 1.113h20.04c.613 0 1.113-.496 1.113-1.113V36.48c0-.613-.5-1.113-1.114-1.113Zm0 0"/><path fill="#000" fill-opacity="1" fill-rule="nonzero" d="M66.82 34.813H46.781c-.922 0-1.672.75-1.672 1.667v4.454c0 .921.75 1.671 1.672 1.671h20.04c.917 0 1.667-.75 1.667-1.671V36.48c0-.917-.75-1.667-1.668-1.667Zm.555 6.12c0 .31-.25.56-.555.56H46.781a.558.558 0 0 1-.558-.56V36.48c0-.304.25-.554.558-.554h20.04c.304 0 .554.25.554.554Zm0 0"/><path fill="#fff" fill-opacity="1" fill-rule="nonzero" d="M45.668 47.059h22.266v22.265H45.668Zm0 0"/><path fill="#000" fill-opacity="1" fill-rule="nonzero" d="M67.934 46.5H45.668a.558.558 0 0 0-.559.559v22.265c0 .305.25.555.559.555h22.266c.304 0 .554-.25.554-.555V47.06a.558.558 0 0 0-.554-.559Zm-.559 22.266H46.223V47.613h21.152Zm0 0"/><path fill="#000" fill-opacity="1" fill-rule="nonzero" d="M56.8 46.5a.558.558 0 0 0-.558.559V58.19a.558.558 0 0 0 1.113 0V47.06a.558.558 0 0 0-.554-.559Zm0 0"/><path fill="#000" fill-opacity="1" fill-rule="nonzero" d="M56.8 57.633H45.669a.558.558 0 1 0 0 1.113h11.133a.557.557 0 0 0 0-1.113ZM38.988 57.633H25.703a.558.558 0 0 0 0 1.113h13.285a.557.557 0 0 0 0-1.113ZM10.941 57a5.018 5.018 0 0 1-2.57-4.375V49.84a.557.557 0 0 0-1.113 0v2.785a6.133 6.133 0 0 0 3.14 5.348.556.556 0 1 0 .543-.973ZM7.816 31.473a.558.558 0 0 0-.558.554v13.36c0 .308.25.558.558.558.305 0 .555-.25.555-.558v-13.36a.557.557 0 0 0-.555-.554ZM7.816 14.773a.558.558 0 0 0-.558.555v12.246c0 .309.25.559.558.559.305 0 .555-.25.555-.559V15.328a.554.554 0 0 0-.555-.555Zm0 0"/><g clip-path="url(#412529764e)"><path fill="#000" fill-opacity="1" fill-rule="nonzero" d="M51.234 1.969H13.383a6.13 6.13 0 0 0-6.125 6.125v2.781c0 .309.25.559.558.559.305 0 .555-.25.555-.559V8.094a5.017 5.017 0 0 1 5.012-5.012h37.851a5.016 5.016 0 0 1 5.008 5.012v20.039a.558.558 0 0 0 1.113 0V8.093a6.13 6.13 0 0 0-6.12-6.124Zm0 0"/></g><path fill="#000" fill-opacity="1" fill-rule="nonzero" d="M10.598 10.32H5.03a2.785 2.785 0 0 0-2.781 2.782 2.786 2.786 0 0 0 2.781 2.785h5.567a2.79 2.79 0 0 0 2.785-2.785 2.788 2.788 0 0 0-2.785-2.782Zm0 4.453H5.03a1.67 1.67 0 0 1 0-3.34h5.567c.922 0 1.672.75 1.672 1.669 0 .921-.75 1.671-1.672 1.671ZM10.598 27.02H5.03A2.785 2.785 0 0 0 2.25 29.8a2.786 2.786 0 0 0 2.781 2.786h5.567a2.79 2.79 0 0 0 2.785-2.785 2.788 2.788 0 0 0-2.785-2.781Zm0 4.453H5.03a1.67 1.67 0 0 1 0-3.34h5.567c.922 0 1.672.75 1.672 1.668 0 .922-.75 1.672-1.672 1.672ZM10.598 44.832H5.03a2.785 2.785 0 0 0-2.781 2.781 2.786 2.786 0 0 0 2.781 2.785h5.567a2.79 2.79 0 0 0 2.785-2.785 2.788 2.788 0 0 0-2.785-2.781Zm0 4.453H5.03a1.67 1.67 0 0 1 0-3.34h5.567c.922 0 1.672.75 1.672 1.668 0 .922-.75 1.672-1.672 1.672ZM51.234 49.285a.558.558 0 0 0-.558.555v5.566c0 .309.25.559.558.559.305 0 .555-.25.555-.559V49.84a.557.557 0 0 0-.555-.555Zm0 0"/><path fill="#000" fill-opacity="1" fill-rule="nonzero" d="M54.016 52.066h-5.567a.555.555 0 0 0-.554.559c0 .305.246.555.554.555h5.567a.558.558 0 1 0 0-1.114ZM54.016 63.2h-5.567a.555.555 0 0 0-.554.558c0 .304.246.554.554.554h5.567a.558.558 0 1 0 0-1.113ZM64.727 50.262a.559.559 0 0 0-.786 0l-3.937 3.937a.552.552 0 0 0 0 .785.553.553 0 0 0 .789 0l3.934-3.933a.556.556 0 0 0 0-.79Zm0 0"/><path fill="#000" fill-opacity="1" fill-rule="nonzero" d="m64.727 54.2-3.934-3.938a.564.564 0 0 0-.79 0 .556.556 0 0 0 0 .789l3.938 3.933a.553.553 0 0 0 .785 0 .552.552 0 0 0 0-.785ZM67.934 57.633H56.8a.558.558 0 0 0-.559.558v11.133c0 .305.25.555.559.555h11.133c.304 0 .554-.25.554-.555V58.191a.558.558 0 0 0-.554-.558Zm-.559 11.133h-10.02v-10.02h10.02Zm0 0"/><path fill="#000" fill-opacity="1" fill-rule="nonzero" d="M65.148 64.871h-5.566a.554.554 0 0 0-.555.555c0 .308.246.558.555.558h5.566c.309 0 .559-.25.559-.558a.558.558 0 0 0-.559-.555ZM65.148 61.531h-5.566a.554.554 0 0 0-.555.555c0 .309.246.559.555.559h5.566a.558.558 0 1 0 0-1.113Zm0 0"/><path fill="#83e1e5" fill-opacity="1" fill-rule="nonzero" d="m36.031 40.781-.789-.789a2.782 2.782 0 0 0-3.933 0L9.66 61.641l4.723 4.726L36.03 44.72a2.787 2.787 0 0 0 0-3.938Zm0 0"/><path fill="#000" fill-opacity="1" fill-rule="nonzero" d="m36.422 40.387-.785-.785c-1.262-1.262-3.461-1.262-4.723 0L9.266 61.25a.552.552 0 0 0 0 .785l4.722 4.723a.556.556 0 0 0 .79 0l21.648-21.649a3.318 3.318 0 0 0 .976-2.359c0-.89-.347-1.73-.98-2.363Zm-.785 3.937L14.383 65.578l-3.938-3.937L31.7 40.387c.844-.84 2.309-.84 3.149 0l.789.789c.422.418.652.976.652 1.574a2.21 2.21 0 0 1-.652 1.574Zm0 0"/><g clip-path="url(#a83f244bca)"><path fill="#000" fill-opacity="1" fill-rule="nonzero" d="m14.777 65.973-4.726-4.723a.552.552 0 0 0-.785 0l-3.938 3.934a.55.55 0 0 0-.133.218l-2.363 7.086a.555.555 0 0 0 .531.73.55.55 0 0 0 .176-.027l7.082-2.363a.6.6 0 0 0 .219-.133l3.937-3.937a.569.569 0 0 0 .16-.395.553.553 0 0 0-.16-.39Zm-4.632 3.84L4.242 71.78l1.969-5.902 3.45-3.45 3.937 3.938Zm0 0"/></g><g clip-path="url(#9983edfe65)"><path fill="#000" fill-opacity="1" fill-rule="nonzero" d="m8.477 70.695-3.149-3.148a.556.556 0 0 0-.922.215l-1.574 4.726a.563.563 0 0 0 .137.57c.105.106.246.16.394.16a.55.55 0 0 0 .176-.027l4.723-1.574a.563.563 0 0 0 .367-.398.563.563 0 0 0-.152-.524Zm-4.235 1.086.938-2.812 1.875 1.875Zm0 0"/></g><path fill="#000" fill-opacity="1" fill-rule="nonzero" d="M28.16 39.992a.564.564 0 0 0-.789 0L19.5 47.867a.552.552 0 0 0 0 .785.553.553 0 0 0 .79 0l7.87-7.87a.564.564 0 0 0 0-.79ZM50.121 18.668h-9.465a.555.555 0 0 0-.554.559c0 .304.246.554.554.554h9.465a.557.557 0 0 0 0-1.113ZM50.121 22.008h-9.465a.555.555 0 0 0-.554.558c0 .305.246.555.554.555h9.465a.557.557 0 0 0 0-1.113Zm0 0"/><path fill="#83e1e5" fill-opacity="1" fill-rule="nonzero" d="m26.184 10.875-7.793 4.453v8.906l7.793 4.453 7.793-4.453v-8.906Zm0 0"/><path fill="#000" fill-opacity="1" fill-rule="nonzero" d="m34.254 14.848-7.793-4.453a.562.562 0 0 0-.555 0l-7.793 4.453a.551.551 0 0 0-.277.48v8.906c0 .2.105.387.277.485l7.793 4.453a.547.547 0 0 0 .555 0l7.793-4.453a.561.561 0 0 0 .281-.485v-8.906c0-.2-.11-.383-.281-.48Zm-.832 9.066-7.238 4.133-7.235-4.133v-8.262l7.235-4.136 7.238 4.136Zm0 0"/><path fill="#000" fill-opacity="1" fill-rule="nonzero" d="M26.184 19.227a.554.554 0 0 0-.555.554v8.907c0 .308.246.558.555.558.308 0 .558-.25.558-.558V19.78a.558.558 0 0 0-.558-.554Zm0 0"/><path fill="#000" fill-opacity="1" fill-rule="nonzero" d="M34.46 15.055a.554.554 0 0 0-.76-.207l-7.516 4.293-7.516-4.293a.556.556 0 1 0-.555.965l7.793 4.453a.547.547 0 0 0 .555 0l7.793-4.453a.556.556 0 0 0 .207-.758Zm0 0"/></svg>